# xmcd CD database file
#
# Track frame offsets:
#	183
#	1725
#	45865
#	93633
#	98135
#	157178
#	195458
#	196323
#	234510
#	276973
#
# Disc length: 3783 seconds
#
# Revision: 0
# Processed by: cddbd v1.5.2PL0 Copyright (c) Steve Scherf et al.
# Submitted via: CDex 1.70beta2
#
DISCID=780ec50a
DTITLE=Art Blakey 1960 Jazz Messengers - The Complete Blue Note Recordings v2cd6
DYEAR=1960
DGENRE=Jazz
TTITLE0=Announcement by Art Blakey
TTITLE1='round about midnight
TTITLE2=The breeze and I
TTITLE3=Announcement by P.W. Marquette and Art Blakey
TTITLE4=High modes
TTITLE5=Night watch
TTITLE6=Announcement by Art Blakey
TTITLE7=The things I love
TTITLE8=The summit
TTITLE9=Theme and announcement
EXTD=YEAR: 1960
EXTT0=
EXTT1=
EXTT2=
EXTT3=
EXTT4=
EXTT5=
EXTT6=
EXTT7=
EXTT8=
EXTT9=
PLAYORDER=
